<?xml version="1.0" encoding="utf-8"?>
<!-- Generator: Adobe Illustrator 17.0.0, SVG Export Plug-In . SVG Version: 6.00 Build 0)  -->
<!DOCTYPE svg PUBLIC "-//W3C//DTD SVG 1.1//EN" "http://www.w3.org/Graphics/SVG/1.1/DTD/svg11.dtd">
<svg version="1.1" id="Layer_1" xmlns="http://www.w3.org/2000/svg" xmlns:xlink="http://www.w3.org/1999/xlink" x="0px" y="0px"
	 width="50px" height="50px" viewBox="0 0 50 50" enable-background="new 0 0 50 50" xml:space="preserve">
<g opacity="0.6">
	<path fill="#FFFFFF" d="M25.384,14.197c-4.995-2.997-11.473-1.378-14.47,3.617s-1.378,11.473,3.617,14.47s11.473,1.378,14.47-3.617
		C31.998,23.673,30.379,17.194,25.384,14.197z M20.177,14.222c2.281,0.017,4.048,1.798,4.039,4.072
		c-0.009,2.25-1.811,4.086-4.04,4.118c-2.236,0.032-4.195-1.946-4.147-4.188C16.076,15.993,17.93,14.205,20.177,14.222z
		 M24.462,30.763c-0.09-1.238-0.164-2.265-0.238-3.293c-0.233,0.004-0.467,0.008-0.7,0.011c0,0.893-0.046,1.79,0.013,2.679
		c0.054,0.814-0.197,1.364-1.048,1.407c-1.534,0.077-3.072,0.125-4.607,0.107c-0.817-0.009-1.166-0.5-1.079-1.356
		c0.073-0.721,0.043-1.458-0.009-2.182c-0.018-0.247-0.241-0.479-0.371-0.718c-0.125,0.028-0.249,0.057-0.373,0.085
		c0,1.068,0,2.135,0,3.264c-2.118-0.709-2.936-1.66-2.826-3.128c0.178-2.376,1.784-4.355,3.973-4.537
		c1.975-0.164,3.987-0.159,5.962,0.007c2.014,0.17,3.661,2.111,3.904,4.144C27.293,29.182,25.773,29.727,24.462,30.763z"/>
	<path fill="#FFFFFF" d="M25,0C11.193,0,0,11.193,0,25s11.193,25,25,25s25-11.193,25-25S38.807,0,25,0z M30.388,32.056
		c-4.244,5.034-11.63,6.392-17.457,2.895c-6.468-3.881-8.565-12.27-4.684-18.738s12.27-8.565,18.738-4.684
		c5.831,3.499,8.107,10.661,5.656,16.776c3.119,1.877,6.259,3.767,9.494,5.714c-0.768,1.272-1.484,2.458-2.248,3.724
		C36.673,35.82,33.552,33.951,30.388,32.056z M44.002,38.93c-1.218,0.761-2.289,0.03-3.329-0.821
		c0.721-1.196,1.435-2.381,2.165-3.594c1.208,0.573,2.415,1.106,2.283,2.559C45.061,37.736,44.56,38.58,44.002,38.93z"/>
</g>
</svg>
