<?xml version="1.0" encoding="utf-8"?>
<!-- Generator: Adobe Illustrator 17.0.0, SVG Export Plug-In . SVG Version: 6.00 Build 0)  -->
<!DOCTYPE svg PUBLIC "-//W3C//DTD SVG 1.1//EN" "http://www.w3.org/Graphics/SVG/1.1/DTD/svg11.dtd">
<svg version="1.1" id="Layer_1" xmlns="http://www.w3.org/2000/svg" xmlns:xlink="http://www.w3.org/1999/xlink" x="0px" y="0px"
	 width="104.167px" height="80.167px" viewBox="0 0 104.167 80.167" enable-background="new 0 0 104.167 80.167"
	 xml:space="preserve">
<g>
	<g>
		
			<linearGradient id="SVGID_1_" gradientUnits="userSpaceOnUse" x1="-519.4672" y1="332.7666" x2="-487.6675" y2="332.7666" gradientTransform="matrix(1 -0.0081 -0.0081 -1 543.4727 356.2664)">
			<stop  offset="0" style="stop-color:#59595C"/>
			<stop  offset="0.5893" style="stop-color:#919395"/>
			<stop  offset="0.8229" style="stop-color:#BABCBE"/>
			<stop  offset="1" style="stop-color:#808083"/>
		</linearGradient>
		<path fill="url(#SVGID_1_)" d="M53.117,28.936c0.001-0.02,0.003-0.039,0.004-0.058l-0.044-0.001
			c-1.558-2.975-7.896-5.363-15.624-5.624c-7.495-0.254-13.869,1.585-16.073,4.299c-0.172,1.3,0.019,2.686,0.409,3.961
			c2.872-2.319,8.891-3.796,15.712-3.565c6.135,0.208,11.414,1.747,14.241,3.874C52.509,31.044,53.087,30.05,53.117,28.936z"/>
	</g>
</g>
<path fill="#808285" d="M71.313,44.596l0.002-0.002h-0.004l0.002-0.002h-0.004l0.002-0.002h-0.004l0.002-0.002h-0.004l0.002-0.002
	h-0.004l0.002-0.002h-0.004l0.002-0.002h-0.004l0.002-0.002h-0.004l0.002-0.002h-0.004l0.002-0.002h-0.004l0.002-0.002h-0.004
	l0.002-0.002h-0.004l0.002-0.002h-0.004l0.002-0.002h-0.004l0.002-0.002h-0.004l0.002-0.002h-0.004l0.002-0.002h-0.004l0.002-0.002
	h-0.004l0.002-0.002h-0.004l0.002-0.002h-0.004l0.002-0.002h-0.004l0.002-0.002h-0.004l0.002-0.002h-0.004l0.002-0.002h-0.004
	l0.002-0.002h-0.004l0.002-0.002h-0.004l0.002-0.002h-0.004l0.002-0.002h-0.004l0.002-0.002h-0.004l0.002-0.002h-0.004l0.002-0.002
	h-0.004l0.002-0.002h-0.004l0.002-0.002h-0.004l0.002-0.002h-0.004l0.002-0.002h-0.004l0.002-0.002h-0.004l0.002-0.002h-0.004
	l0.002-0.002H71.26l0.002-0.002h-0.007l0.002-0.002h-0.004l0.001-0.013h-0.004l0.002-0.002H71.25l0.002-0.002h-0.004l0.002-0.002
	h-0.004l0.002-0.002h-0.004l0.002-0.002h-0.004l0.002-0.002h-0.004l0.002-0.002h-0.004l0.002-0.002H71.24l0.002-0.002h-0.004
	l0.002-0.002h-0.004l0.002-0.002h-0.004l0.002-0.002h-0.004l0.002-0.002h-0.004l0.002-0.002h-0.004l0.002-0.002H71.23l0.002-0.002
	h-0.004l0.002-0.002h-0.004l0.002-0.002h-0.004l0.002-0.002h-0.004l0.002-0.002h-0.004l0.002-0.002h-0.004l0.002-0.002H71.22
	l0.002-0.002h-0.004l0.002-0.002h-0.004l0.002-0.002h-0.004l0.002-0.002h-0.004l0.002-0.002h-0.004l0.002-0.002h-0.004l0.002-0.002
	H71.21l0.002-0.002h-0.004l0.002-0.002h-0.004l0.002-0.002h-0.004l0.002-0.002h-0.004l0.002-0.002h-0.004l0.002-0.002h-0.004
	l0.002-0.002H71.2l0.002-0.002h-0.004l0.002-0.002h-0.004l0.002-0.002h-0.004l0.002-0.002h-0.004l0.002-0.002h-0.004l0.002-0.002
	h-0.004l0.002-0.002H71.19l0.002-0.002h-0.004l0.002-0.002h-0.004l0.002-0.002h-0.004l0.002-0.002h-0.004l0.002-0.002h-0.004
	l0.002-0.002h-0.004l0.002-0.002H71.18l0.002-0.002h-0.004l0.002-0.002h-0.004l0.002-0.002h-0.004l0.002-0.002h-0.004l0.002-0.002
	h-0.004l0.002-0.002h-0.004l0.002-0.002H71.17l0.002-0.002h-0.004l0.002-0.002h-0.004l0.002-0.002h-0.004l0.002-0.002h-0.004
	l0.002-0.002h-0.004l0.002-0.002h-0.004l0.002-0.002H71.16l0.002-0.002h-0.004l0.002-0.002h-0.004l0.002-0.002h-0.004l0.002-0.002
	h-0.004l0.002-0.002h-0.004l0.002-0.002h-0.004l0.002-0.002H71.15l0.002-0.002h-0.004l0.002-0.002h-0.004l0.002-0.002h-0.004
	l0.002-0.002h-0.004l0.002-0.002h-0.004l0.002-0.002h-0.004l0.002-0.002H71.14l0.002-0.002h-0.004l0.002-0.002h-0.004l0.002-0.002
	h-0.004l0.002-0.002h-0.004l0.002-0.002h-0.004l0.002-0.002h-0.004l0.002-0.002H71.13l0.002-0.002h-0.004l0.002-0.002h-0.004
	l0.002-0.002h-0.004l0.002-0.002h-0.004l0.002-0.002h-0.004l0.002-0.002h-0.013l0.002-0.002h-0.004l0.002-0.002H71.11l0.002-0.002
	h-0.004l0.002-0.002h-0.004l0.002-0.002h-0.004l0.002-0.002h-0.004l0.002-0.002h-0.004l0.002-0.002h-0.004l0.002-0.002H71.1
	l0.002-0.002h-0.004l0.002-0.002h-0.004l0.002-0.002h-0.004l0.002-0.002h-0.004l0.002-0.002h-0.004l0.002-0.002h-0.004l0.002-0.002
	H71.09l0.002-0.002h-0.004l0.002-0.002h-0.004l0.002-0.002h-0.004l0.002-0.002h-0.004l0.002-0.002h-0.004l0.002-0.002h-0.004
	l0.002-0.002H71.08l0.002-0.002h-0.004l0.002-0.002h-0.004l0.002-0.002h-0.004l0.002-0.002h-0.004l0.002-0.002h-0.004l0.002-0.002
	h-0.004l0.002-0.002H71.07l0.002-0.002h-0.004l0.002-0.002h-0.004l0.002-0.002h-0.004l0.002-0.002h-0.004l0.002-0.002h-0.004
	l0.002-0.002h-0.004l0.002-0.002H71.06l0.002-0.002h-0.004l0.002-0.002h-0.004l0.002-0.002h-0.004l0.002-0.002h-0.004l0.002-0.002
	h-0.004l0.002-0.002h-0.004l0.002-0.002H71.05l0.002-0.002h-0.004l0.002-0.002h-0.004l0.002-0.002h-0.008l0.002-0.002H71.04
	l0.002-0.002h-0.004l0.002-0.002h-0.004l0.002-0.002h-0.004l0.002-0.002h-0.004l0.002-0.002h-0.004l0.002-0.002h-0.004l0.002-0.002
	H71.03l0.002-0.002h-0.004l0.002-0.002h-0.004l0.002-0.002h-0.004l0.002-0.002h-0.004l0.002-0.002h-0.004l0.002-0.002h-0.004
	l0.002-0.002H71.02l0.002-0.002h-0.004l0.002-0.002h-0.004l0.002-0.002h-0.004l0.002-0.002h-0.004l0.002-0.002h-0.004l0.002-0.002
	h-0.004l0.002-0.002h-0.004l0.002-0.002h-0.004l0.002-0.002h-0.004l0.002-0.002h-0.004l0.002-0.002h-0.004l0.002-0.002h-0.004
	l0.002-0.002h-0.004l0.002-0.002h-0.004l0.002-0.002h-0.004l0.002-0.002h-0.004L71,44.137h-0.004l0.002-0.002h-0.004l0.002-0.002
	h-0.004l0.002-0.002h-0.004l0.002-0.002h-0.004l0.002-0.002h-0.004l0.002-0.002h-0.004l0.002-0.002h-0.004l0.002-0.002h-0.004
	l0.002-0.002h-0.004l0.002-0.002h-0.004l0.002-0.002h-0.004l0.002-0.002h-0.004l0.002-0.002h-0.004l0.002-0.002h-0.004l0.002-0.002
	h-0.004l0.002-0.002h-0.004l-0.003-0.051h-0.004l0.002-0.002h-0.004l0.002-0.002h-0.004l0.002-0.002h-0.004l0.002-0.002h-0.004
	l0.002-0.002H70.96l0.002-0.002h-0.004l0.002-0.002h-0.004l0.002-0.002h-0.004l0.002-0.002h-0.004l0.002-0.002h-0.004l0.002-0.002
	h-0.004l0.002-0.002H70.95l0.002-0.002h-0.004l0.002-0.002h-0.004l0.002-0.002h-0.004l0.002-0.002h-0.004l0.002-0.002h-0.004
	l0.002-0.002h-0.004l0.002-0.002H70.94l0.002-0.002h-0.004l0.002-0.002h-0.004l0.002-0.002h-0.004l0.002-0.002h-0.004l0.002-0.002
	h-0.004l0.002-0.002h-0.004l0.002-0.002H70.93l0.002-0.002h-0.004l0.002-0.002h-0.004l0.002-0.002h-0.004l0.002-0.002h-0.004
	l0.002-0.002h-0.004l0.002-0.002h-0.004l0.002-0.002H70.92l0.002-0.002h-0.004l0.002-0.002h-0.004l0.002-0.002h-0.004l0.002-0.002
	h-0.004l0.002-0.002h-0.004l0.002-0.002h-0.004l0.002-0.002h-0.004l0.002-0.002h-0.004l0.002-0.002h-0.004l0.002-0.002h-0.004
	l0.002-0.002H70.9l0.002-0.002h-0.004l0.002-0.002h-0.004l0.002-0.002h-0.004l0.002-0.002h-0.004l0.002-0.002h-0.004l0.002-0.002
	h-0.004l0.002-0.002H70.89l0.002-0.002h-0.004l0.002-0.002h-0.004l0.002-0.002h-0.004l0.002-0.002h-0.004l0.002-0.002h-0.004
	l0.002-0.002h-0.004l0.002-0.002H70.88l0.002-0.002h-0.004l0.002-0.002h-0.004l0.002-0.002h-0.004l0.002-0.002h-0.004l0.002-0.002
	h-0.004l0.002-0.002h-0.004l0.002-0.002H70.87l0.002-0.002h-0.004l0.002-0.002h-0.004l0.002-0.002h-0.004l0.002-0.002h-0.004
	l0.002-0.002h-0.004l0.002-0.002h-0.004l0.002-0.002H70.86l0.002-0.002H40.168c-0.106-0.292-0.239-0.657-0.388-1.064l20.118-23.429
	v-6.58h-0.001v-0.002h-0.001V12.82h-0.001v-0.002h-0.001v-0.002h-0.001v-0.002H59.89v-0.002h-0.001v-0.002h-0.001v-0.002h-0.001
	v-0.002h-0.001v-0.002h-0.001v-0.002h-0.001v-0.002H59.88v-0.002h-0.003v-0.002h-0.001v-0.002h-0.001V12.79h-0.001v-0.002h-0.001
	v-0.002H59.87v-0.002h-0.001v-0.002h-0.001V12.78h-0.001v-0.002h-0.001v-0.002h-0.001v-0.002h-0.001v-0.002H59.86v-0.002h-0.001
	v-0.002h-0.003v-0.002h-0.001v-0.002h-0.001V12.76h-0.001v-0.002H59.85v-0.002h-0.001v-0.002h-0.001v-0.002h-0.001V12.75h-0.001
	v-0.002h-0.001v-0.002h-0.001v-0.002H59.84v-0.002h-0.001v-0.002h-0.001v-0.002h-0.003v-0.002h-0.001v-0.002h-0.001v-0.002H59.83
	v-0.002h-0.001v-0.014h-0.001v-0.002h-0.001V12.71h-0.001v-0.003h-0.001v-0.002h-0.001v-0.002H59.82V12.7h-0.001v-0.002h-0.001
	v-0.002h-0.001v-0.003h-0.003v-0.002h-0.001v-0.002H59.81v-0.003h-0.001v-0.002h-0.001v-0.002h-0.001v-0.003h-0.001v-0.002h-0.001
	v-0.002h-0.001v-0.003H59.8V12.67h-0.001v-0.002h-0.001v-0.003h-0.001v-0.002h-0.001V12.66h-0.003v-0.003H59.79v-0.002h-0.001
	v-0.002h-0.001V12.65h-0.001v-0.002h-0.001v-0.002h-0.001v-0.002h-0.001v-0.002H59.78V12.64h-0.001v-0.002h-0.001v-0.002h-0.001
	v-0.002h-0.001v-0.002h-0.001v-0.002h-0.003v-0.002h-0.001v-0.002h-0.001v-0.002h-0.001v-0.002h-0.001v-0.002h-0.001v-0.002h-0.001
	v-0.002h-0.001v-0.002h-0.001V12.61h-0.001v-0.002h-0.001v-0.002h-0.001v-0.002h-0.001v-0.002h-0.001v-0.002h-0.003v-0.002h-0.001
	v-0.002h-0.001v-0.002h-0.001v-0.002h-0.001v-0.002h-0.001v-0.002h-0.001v-0.002h-0.001v-0.002h-0.001V12.58h-0.001v-0.002h-0.001
	v-0.002h-0.001v-0.002h-0.001v-0.002h-0.001V12.57h-0.003v-0.002h-0.001v-0.002h-0.001v-0.002h-0.001v-0.002h-0.001v-0.002h-0.001
	v-0.002h-0.001v-0.002h-0.001v-0.002h-0.001V12.55h-0.001v-0.002h-0.001v-0.002h-0.001v-0.002h-0.001v-0.002H59.71V12.54h-0.003
	v-0.002h-0.001v-0.002h-0.001v-0.002h-0.001v-0.002h-0.001v-0.002H59.7v-0.002h-0.001v-0.002h-0.001v-0.002h-0.001v-0.002h-0.001
	v-0.002h-0.001v-0.002h-0.001v-0.002H59.69v-0.002h-0.001V12.51h-0.003v-0.002h-0.001v-0.002h-0.001v-0.002h-0.001v-0.002H59.68
	V12.48h-0.001v-0.002h-0.001v-0.002h-0.001v-0.003h-0.001v-0.002h-0.001v-0.002h-0.001v-0.003H59.67v-0.002h-0.001v-0.002h-0.001
	v-0.003h-0.003v-0.002h-0.001v-0.002h-0.001v-0.003H59.66V12.45h-0.001v-0.002h-0.001v-0.003h-0.001v-0.002h-0.001v-0.002h-0.001
	v-0.003h-0.001v-0.002H59.65v-0.002h-0.001v-0.003h-0.001v-0.002h-0.001v-0.002h-0.003v-0.003h-0.001v-0.002H59.64v-0.002h-0.001
	v-0.002h-0.001v-0.002h-0.001v-0.002h-0.001v-0.002h-0.001v-0.002h-0.001v-0.002H59.63v-0.002h-0.001v-0.002h-0.001V12.4h-0.001
	v-0.002h-0.001v-0.002h-0.003v-0.002H59.62v-0.002h-0.001v-0.002h-0.001v-0.002h-0.001v-0.002h-0.001v-0.002h-0.001v-0.002h-0.001
	v-0.002H59.61v-0.002h-0.001v-0.002h-0.001v-0.002h-0.001V12.37h-0.001v-0.002h-0.001v-0.002H59.6v-0.002h-0.001v-0.002h-0.001
	V12.36h-0.001v-0.002h-0.001v-0.002h-0.001v-0.002h-0.001v-0.002H59.59v-0.002h-0.001v-0.002h-0.001v-0.002h-0.001v-0.002h-0.001
	V12.34h-0.001v-0.002h-0.001v-0.002h-0.003v-0.002h-0.001v-0.002h-0.001V12.33h-0.001v-0.002h-0.001v-0.002h-0.001v-0.002h-0.001
	v-0.002h-0.001v-0.002h-0.001v-0.002h-0.001v-0.002h-0.001v-0.002h-0.001v-0.002h-0.001v-0.002h-0.001v-0.002h-0.003v-0.002h-0.001
	v-0.002h-0.001V12.3h-0.001v-0.002h-0.001v-0.002h-0.001v-0.002h-0.001v-0.002h-0.001v-0.002h-0.001v-0.002h-0.001v-0.002h-0.001
	v-0.002h-0.001v-0.002h-0.001v-0.002h-0.001v-0.002h-0.003v-0.002h-0.001v-0.021h-0.001v-0.002h-0.001v-0.002h-0.001v-0.003h-0.001
	v-0.002h-0.001v-0.002h-0.001v-0.003h-0.001v-0.002h-0.001v-0.002h-0.001v-0.003h-0.001V12.23h-0.001v-0.002h-0.001v-0.003h-0.003
	v-0.002h-0.001v-0.002h-0.001v-0.003h-0.001v-0.002H59.51v-0.002h-0.001v-0.003h-0.001v-0.002h-0.001v-0.002h-0.001v-0.003h-0.001
	v-0.002h-0.001v-0.002H59.5v-0.003h-0.001v-0.002h-0.001v-0.002h-0.003V12.19h-0.001v-0.002h-0.001v-0.002H59.49v-0.002h-0.001
	v-0.002h-0.001v-0.002h-0.001v-0.002h-0.001v-0.002h-0.001v-0.002h-0.001v-0.002H59.48v-0.002h-0.001v-0.002h-0.001v-0.002h-0.001
	v-0.002h-0.003V12.16h-0.001v-0.002H59.47v-0.002h-0.001v-0.002h-0.001v-0.002h-0.001V12.15h-0.001v-0.002h-0.001v-0.002h-0.001
	v-0.002H59.46v-0.002h-0.001v-0.002h-0.001v-0.002h-0.001v-0.002h-0.001v-0.002h-0.003v-0.002H59.45v-0.002h-0.001v-0.002h-0.001
	v-0.002h-0.001v-0.002h-0.001V12.12h-0.001v-0.002h-0.001v-0.002H28.524l2.57,7.592h0.001l0.001,0.002h0.001l0.001,0.002h0.001
	l0.001,0.002h0.001l0.001,0.002H31.1l0.001,0.002h0.001l0.001,0.002h0.001l0.001,0.002h0.001l0.001,0.002h0.001l0.001,0.002h0.001
	l0.001,0.002h0.001l0.001,0.002h0.001l0.001,0.002h0.001l0.001,0.002h0.001l0.001,0.002h0.001l0.001,0.002h0.001l0.001,0.002h0.001
	l0.001,0.002h0.001l0.001,0.002h0.001l0.001,0.002h0.001l0.001,0.002h0.001l0.001,0.002h0.001l0.001,0.002h0.001l0.001,0.002h0.001
	l0.001,0.002h0.001l0.001,0.002h0.001l0.001,0.002h0.001l0.001,0.002h0.001l0.001,0.002h0.001l0.001,0.002h0.001l0.001,0.002h0.001
	l0.001,0.002h0.001l0.001,0.002h0.001l0.001,0.002h0.001l0.001,0.002h0.001l0.001,0.002h0.001l0.001,0.002h0.001l0.001,0.002h0.001
	l0.001,0.002h0.001l0.001,0.002h0.001l0.001,0.002h0.001l0.001,0.002h0.001l0.001,0.002h0.001l0.001,0.002h0.001l0.001,0.002h0.001
	l0.001,0.002h0.001l0.001,0.002h0.001l0.001,0.002h0.001l0.001,0.002h0.001l0.001,0.002h0.001l0.001,0.002h0.001l0.001,0.002h0.001
	l0.001,0.002h0.001l0.001,0.002h0.001l0.001,0.002h0.001l0.001,0.002h0.005l0.001,0.002h0.001l0.001,0.002h0.001l0.001,0.002h0.001
	l0.001,0.002h0.001l0.001,0.002h0.001l0.001,0.002h0.001l0.001,0.002h0.001l0.001,0.002h0.001l0.001,0.002h0.001l0.001,0.002h0.001
	l0.001,0.002h0.001l0.001,0.002h0.001l0.001,0.002h0.001l0.001,0.002h0.001l0.001,0.002h0.001l0.001,0.002H31.2l0.001,0.002h0.001
	l0.001,0.002h0.001l0.001,0.002h0.001l0.001,0.002h0.001l0.001,0.002h0.001l0.001,0.002h0.001l0.001,0.002h0.001l0.001,0.002h0.001
	l0.001,0.002h0.001l0.001,0.002h0.001l0.001,0.002h0.001l0.001,0.002h0.001l0.001,0.002h0.001l0.001,0.002h0.001l0.001,0.002h0.001
	l0.001,0.002h0.001l0.001,0.002h0.001l0.001,0.002h0.001l0.001,0.002h0.001l0.001,0.002h0.001l0.001,0.002h0.001l0.001,0.002h0.001
	l0.001,0.002h0.001l0.001,0.002h0.001l0.001,0.002h0.001l0.001,0.002h0.001l0.001,0.002h0.001l0.001,0.002h0.001l0.001,0.002h0.001
	l0.001,0.002h0.001l0.001,0.002h0.001l0.001,0.002h0.001l0.001,0.002h0.001l0.001,0.002h0.001l0.001,0.002h0.001l0.001,0.002h0.001
	l0.001,0.002h0.001l0.001,0.002h0.001l0.001,0.002h0.001l0.001,0.002h0.001l0.001,0.002h0.001l0.001,0.002h0.001l0.001,0.002h0.001
	l0.001,0.002h0.001l0.001,0.002h0.001l0.001,0.002h0.001l0.001,0.002h0.001l0.001,0.002h0.001l0.001,0.002h0.001l0.001,0.002h0.001
	l0.001,0.002h0.001l0.001,0.002h0.001l0.001,0.002h0.001l0.001,0.002h0.001l0.001,0.002h0.001l0.001,0.002h0.001l0.001,0.002h0.001
	l0.001,0.002h0.001l0.001,0.002h0.001l0.001,0.002h0.001l0.001,0.002h0.001l0.001,0.002h0.001l0.001,0.002h0.001l0.001,0.002h0.001
	l0.001,0.002h0.001l0.001,0.002h0.001l0.001,0.002h0.001l0.001,0.002h0.001l0.001,0.002h0.001l0.001,0.002H31.3L31.3,20.01h0.001
	l0.001,0.002h0.001l0.001,0.002h0.001l0.001,0.002h0.001l0.001,0.002h0.001l0.001,0.002h0.001l0.001,0.002h0.011l0.001,0.002h0.001
	l0.001,0.002h0.001l0.001,0.002h0.001l0.001,0.002h0.001l0.001,0.002h0.001l0.001,0.002h0.001l0.001,0.002h0.001l0.001,0.002h0.001
	l0.001,0.002h0.001l0.001,0.002h0.001l0.001,0.002h0.001l0.001,0.002h0.001l0.001,0.002h0.001l0.001,0.002h0.001l0.001,0.002h0.001
	l0.001,0.002h0.001l0.001,0.002h0.001l0.001,0.002h0.001l0.001,0.002h0.001l0.001,0.002h0.001l0.001,0.002h0.001l0.001,0.002h0.001
	l0.001,0.002h0.001l0.001,0.002h0.001l0.001,0.002h0.001l0.001,0.002h0.001l0.001,0.002h0.001l0.001,0.002h0.001l0.001,0.002h0.001
	l0.001,0.002h0.001l0.001,0.002h0.001l0.001,0.002h0.001l0.001,0.002h0.001l0.001,0.002h0.001l0.001,0.002h0.001l0.001,0.002h0.001
	l0.001,0.002h0.001l0.001,0.002h0.001l0.001,0.002h0.001l0.001,0.002h0.001l0.001,0.002h0.001l0.001,0.002h0.001l0.001,0.002h0.001
	l0.001,0.002h0.001l0.001,0.002h0.001l0.001,0.002h0.001l0.001,0.002h0.005l0.001,0.002h0.001l0.001,0.002h0.001l0.001,0.002h0.001
	l0.001,0.002h0.001l0.001,0.002h0.001l0.001,0.002h0.001l0.001,0.002H31.4l0.001,0.002h0.001l0.001,0.002h0.001l0.001,0.002h0.001
	l0.001,0.002h0.001l0.001,0.002h0.001l0.001,0.002h0.001l0.001,0.002h0.001l0.001,0.002h0.001l0.001,0.002h0.001l0.001,0.002h0.001
	l0.001,0.002h0.001l0.001,0.002h0.001l0.001,0.002h0.001l0.001,0.002h0.001l0.001,0.002h0.001l0.001,0.002h0.001l0.001,0.002h0.001
	l0.001,0.002h0.001l0.001,0.002h0.001l0.001,0.002h0.001l0.001,0.002h0.001l0.001,0.002h0.001l0.001,0.002h0.001l0.001,0.002h0.001
	l0.001,0.002h0.001l0.001,0.002h0.001l0.001,0.002h0.001l0.001,0.002h0.001l0.001,0.002h0.001l0.001,0.002h0.001l0.001,0.002h0.001
	l0.001,0.002h0.001l0.001,0.002h0.001l0.001,0.002h0.001l0.001,0.002h0.001l0.001,0.002h0.001l0.001,0.002h0.001l0.001,0.002h0.001
	l0.001,0.002h0.001l0.001,0.002h0.001l0.001,0.002h0.001l0.001,0.002h0.001l0.001,0.002h0.001l0.001,0.002h0.001l0.001,0.002h0.001
	l0.001,0.002h0.001l0.001,0.002h0.001l0.001,0.002h0.001l0.001,0.002h0.001l0.001,0.002h0.001l0.001,0.002h0.001l0.001,0.002h0.001
	l0.001,0.002h0.001l0.001,0.002h0.001l0.001,0.002h0.001l0.001,0.002h0.001l0.001,0.002h0.001l0.001,0.002h0.001l0.001,0.002h0.001
	l0.001,0.002h0.001l0.001,0.002h0.001l0.001,0.002h0.001l0.001,0.002h0.001l0.001,0.002h0.001l0.001,0.002h0.001l0.001,0.002h0.001
	l0.001,0.002h0.001l0.001,0.002h0.001l0.001,0.002h0.001l0.001,0.002H31.5l0.001,0.002h0.001l0.001,0.002h0.001l0.001,0.002h0.001
	l0.001,0.002h0.001l0.001,0.002h0.001l0.001,0.002h0.001l0.001,0.002h0.001l0.001,0.002h0.001l0.001,0.002h0.001l0.001,0.002h0.001
	l0.001,0.002h0.001l0.001,0.002h0.001l0.001,0.002h0.001l0.001,0.002h0.001l0.001,0.002h0.001l0.001,0.002h0.011l0.001,0.002h0.001
	l0.001,0.002h0.001l0.001,0.002h0.001l0.001,0.002h0.001l0.001,0.002h0.001l0.001,0.002h0.001l0.001,0.002h0.001l0.001,0.002h0.001
	l0.001,0.002h0.001l0.001,0.002h0.001l0.001,0.002h0.001l0.001,0.002h0.001l0.001,0.002h16.137L35.355,34.769L23.044,3.757v0.001
	l-0.001-0.003v0.001l-0.001-0.003v0.001L23.04,3.751v0.001l-0.001-0.003v0.001l-0.001-0.003v0.001l-0.001-0.003v0.001l-0.001-0.003
	v0.001L23.033,3.74v0.001l-0.001-0.003v0.001L23.03,3.736v0.001l-0.001-0.003v0.001l-0.001-0.003v0.001l-0.001-0.003V3.73
	l-0.001-0.003v0.001l-0.001-0.003v0.001L23.02,3.719V3.72l-0.001-0.003v0.001l-0.001-0.003v0.001l-0.001-0.003v0.001l-0.001-0.003
	v0.001l-0.001-0.003v0.001l-0.001-0.003v0.001L23.01,3.704v0.001l-0.001-0.003v0.001L23.008,3.7v0.001l-0.001-0.003v0.001
	l-0.001-0.003v0.001l-0.001-0.003v0.001l-0.001-0.003v0.001l-0.003-0.007v0.001l-0.001-0.003v0.001l-0.001-0.003v0.001l-0.001-0.003
	V3.68l-0.001-0.003v0.001l-0.001-0.003v0.001l-0.001-0.003v0.001L22.989,3.67v0.001l-0.001-0.003v0.001l-0.001-0.003v0.001
	l-0.001-0.003v0.001l-0.001-0.003v0.001L22.982,3.66V3.66l-0.001-0.003v0.001l-0.003-0.006v0.001L22.976,3.65v0.001l-0.001-0.003
	v0.001l-0.001-0.003v0.001l-0.001-0.003v0.001l-0.001-0.003v0.001l-0.001-0.003V3.64l-0.001-0.003v0.001l-0.001-0.003v0.001
	l-0.001-0.003v0.001l-0.001-0.003v0.001l-0.001-0.003v0.001l-0.001-0.003v0.001l-0.003-0.006v0.001l-0.001-0.003v0.001l-0.001-0.003
	v0.001l-0.001-0.004v0.001l-0.001-0.003v0.001l-0.001-0.003V3.61l-0.002-0.004v0.001l-0.001-0.003v0.001l-0.001-0.003v0.001
	l-0.001-0.004V3.6l-0.001-0.003v0.001l-0.001-0.003v0.001l-0.002-0.004v0.001L22.938,3.59v0.001l-0.001-0.003v0.001l-0.001-0.004
	v0.001l-0.001-0.003v0.001l-0.001-0.003v0.001l-0.001-0.004v0.001L22.93,3.576v0.001l-0.001-0.003v0.001l-0.002-0.004v0.001
	l-0.001-0.003V3.57l-0.001-0.003v0.001l-0.001-0.004v0.001L22.92,3.562v0.001L22.919,3.56V3.56l-0.001-0.003v0.001l-0.001-0.003
	v0.001l-0.002-0.004v0.001L22.913,3.55v0.001l-0.001-0.003v0.001L22.91,3.546v0.001l-0.001-0.003v0.001l-0.001-0.003v0.001
	l-0.001-0.003V3.54l-0.001-0.003v0.001l-0.001-0.003v0.001l-0.001-0.003v0.001L22.9,3.531v0.001l-0.001-0.003v0.001l-0.001-0.003
	v0.001l-0.001-0.003v0.001l-0.003-0.006v0.001l-0.001-0.003v0.001L22.89,3.514v0.001l-0.001-0.003v0.001L22.887,3.51v0.001
	l-0.001-0.003v0.001l-0.001-0.003v0.001l-0.001-0.003v0.001l-0.001-0.003v0.001L22.88,3.499V3.5l-0.001-0.003v0.001l-0.001-0.003
	v0.001l-0.001-0.003v0.001l-0.001-0.003v0.001l-0.003-0.007v0.001L22.87,3.482v0.001L22.869,3.48v0.001l-0.001-0.003v0.001
	l-0.001-0.003v0.001l-0.001-0.003v0.001l-0.001-0.003v0.001L22.861,3.47V3.47L22.86,3.468v0.001l-0.001-0.003v0.001l-0.001-0.003
	v0.001l-0.001-0.003v0.001l-0.001-0.003V3.46l-0.001-0.003v0.001L22.85,3.451v0.001l-0.001-0.003V3.45l-0.001-0.003v0.001
	l-0.001-0.003v0.001l-0.001-0.003v0.001l-0.001-0.003v0.001l-0.001-0.003v0.001L22.84,3.436v0.001l-0.001-0.003v0.001l-0.001-0.003
	v0.001L22.836,3.43v0.001l-0.001-0.003v0.001l-0.001-0.003v0.001l-0.001-0.003v0.001l-0.003-0.006v0.001l-0.001-0.003v0.001
	l-0.001-0.003v0.001l-0.001-0.003v0.001l-0.001-0.003V3.41l-0.001-0.003v0.001L22.82,3.405v0.001l-0.001-0.003v0.001l-0.001-0.003
	v0.001l-0.001-0.003v0.001l-0.003-0.006v0.001l-0.001-0.003v0.001L22.81,3.39V3.39l-0.001-0.004v0.001l-0.001-0.003v0.001
	l-0.001-0.003v0.001L22.805,3.38V3.38l-0.001-0.003v0.001l-0.001-0.003v0.001L22.8,3.372v0.001L22.798,3.37v0.001l-0.001-0.003
	v0.001l-0.001-0.004v0.001l-0.001-0.003v0.001l-0.001-0.003v0.001l-0.002-0.004v0.001l-0.001-0.003v0.001l-0.001-0.003v0.001
	l-0.001-0.004v0.001l-0.001-0.003V3.35l-0.001-0.003v0.001l-0.001-0.004v0.001l-0.001-0.003v0.001L22.779,3.34v0.001l-0.002-0.004
	v0.001l-0.001-0.003v0.001l-0.001-0.003v0.001L22.773,3.33v0.001l-0.001-0.003v0.001L22.77,3.326v0.001l-0.001-0.003v0.001
	l-0.001-0.003v0.001l-0.002-0.004v0.001l-0.001-0.003v0.001l-0.001-0.003v0.001l-0.001-0.003v0.001l-0.001-0.003V3.31l-0.001-0.003
	v0.001l-0.001-0.003v0.001l-0.001-0.003v0.001l-0.001-0.003v0.001l-0.001-0.003v0.001l-0.001-0.003v0.001l-0.001-0.003v0.001
	l-0.001-0.003v0.001L22.747,3.29v0.001l-0.003-0.006v0.001l-0.001-0.003v0.001L22.741,3.28v0.001l-0.001-0.003v0.001l-0.001-0.003
	v0.001l-0.001-0.003v0.001l-0.001-0.003v0.001L22.734,3.27V3.27l-0.001-0.003v0.001l-0.001-0.003v0.001L22.73,3.263v0.001
	l-0.001-0.003v0.001l-0.001-0.003V3.26l-0.001-0.003v0.001L22.722,3.25v0.001l-0.001-0.003v0.001L22.72,3.246v0.001l-0.001-0.003
	v0.001l-0.001-0.003v0.001L22.715,3.24v0.001l-0.001-0.003v0.001l-0.001-0.003v0.001l-0.001-0.003v0.001L22.71,3.231v0.001
	l-0.001-0.003V3.23l-0.001-0.003v0.001l-0.001-0.003v0.001l-0.001-0.003v0.001l-0.003-0.006v0.001L22.7,3.215v0.001l-0.001-0.003
	v0.001l-0.001-0.003v0.001l-0.001-0.003v0.001l-0.001-0.003v0.001l-0.001-0.003v0.001l-0.001-0.003v0.001L22.69,3.2v0.001
	l-0.001-0.003v0.001l-0.001-0.003v0.001l-0.001-0.003v0.001l-0.001-0.003v0.001l-0.001-0.003V3.19L22.68,3.184v0.001l-0.001-0.003
	v0.001L22.677,3.18V3.18l-0.001-0.003v0.001l-0.001-0.003v0.001l-0.001-0.003v0.001l-0.001-0.003v0.001L22.67,3.169V3.17
	l-0.001-0.003v0.001l-0.001-0.003v0.001L22.664,3.16V3.16l-0.001-0.003v0.001l-0.001-0.003v0.001L22.66,3.153v0.001L22.659,3.15
	v0.001l-0.001-0.003v0.001l-0.001-0.004v0.001l-0.001-0.003v0.001l-0.001-0.003v0.001l-0.002-0.004v0.001l-0.001-0.003v0.001
	l-0.001-0.003v0.001l-0.001-0.004v0.001l-0.001-0.003V3.13l-0.001-0.003v0.001l-0.002-0.004v0.001L22.64,3.122v0.001L22.639,3.12
	v0.001l-0.001-0.004v0.001l-0.001-0.003v0.001l-0.001-0.003v0.001L22.632,3.11v0.001l-0.001-0.003v0.001L22.63,3.106v0.001
	l-0.001-0.004v0.001l-0.001-0.003v0.001l-0.001-0.003v0.001l-0.001-0.004v0.001l-0.001-0.003v0.001l-0.001-0.003v0.001L22.62,3.089
	V3.09l-0.001-0.003v0.001l-0.002-0.004v0.001l-0.001-0.003v0.001L22.613,3.08V3.08l-0.001-0.003v0.001L22.61,3.075v0.001
	l-0.001-0.003v0.001l-0.001-0.003v0.001l-0.001-0.003V3.07l-0.001-0.003v0.001l-0.001-0.003v0.001l-0.001-0.003v0.001L22.6,3.06
	v0.001l-0.001-0.003v0.001l-0.001-0.003v0.001L22.595,3.05v0.001l-0.001-0.003v0.001l-0.001-0.003v0.001l-0.001-0.003v0.001
	l-0.001-0.003v0.001L22.588,3.04l-3.906,9.692L2.734,52.376h0.002l-0.001,0.002h0.002L2.737,52.38h0.002l-0.001,0.002h0.003
	l-0.001,0.002h0.002l-0.001,0.002h0.002l-0.001,0.002h0.002L2.745,52.39h0.003l-0.001,0.002h0.002l-0.001,0.004h0.003L2.75,52.399
	h0.002l-0.001,0.002h0.002l-0.001,0.002h0.002l-0.001,0.002h0.002l-0.001,0.002h0.002L2.757,52.41H2.76l-0.001,0.002h0.003
	l-0.001,0.002h0.001l-0.001,0.002h0.002l-0.001,0.002h0.002L2.764,52.42h0.003l-0.001,0.002h0.002l-0.001,0.002H2.77L2.769,52.43
	h0.002l-0.001,0.002h0.002l-0.001,0.002h0.003l-0.001,0.002h0.002l-0.001,0.002h0.002l-0.001,0.002h0.002l-0.001,0.002H2.78
	L2.78,52.445h0.002l-0.001,0.002h0.002l-0.001,0.002h0.003l-0.001,0.002h0.002l-0.001,0.002h0.003l-0.001,0.002H2.79L2.79,52.458
	h0.002L2.79,52.464h0.003l-0.001,0.002h0.002l-0.001,0.002h0.002L2.795,52.47h0.002l-0.001,0.002h0.002l-0.001,0.002H2.8L2.8,52.476
	h0.003l-0.001,0.002h0.002l-0.001,0.002h0.001l-0.001,0.002h0.002l-0.001,0.002h0.002l-0.001,0.002H2.81l-0.001,0.002h0.002
	L2.81,52.491h0.002l-0.001,0.006h0.002l-0.001,0.002h0.003l-0.001,0.002h0.002l-0.001,0.002h0.002l-0.001,0.002H2.82l-0.001,0.002
	h0.002L2.821,52.51h0.002l-0.001,0.002h0.002l-0.001,0.002h0.002l-0.001,0.002h0.003l-0.001,0.002h0.002L2.829,52.52h0.002
	L2.83,52.522h0.002l-0.001,0.002h0.002l-0.001,0.006h0.003l-0.001,0.002h0.002l-0.001,0.002h0.002l-0.001,0.002H2.84l-0.001,0.002
	h0.003l-0.001,0.002h0.002l-0.001,0.002h0.003l-0.001,0.002h0.002L2.845,52.55h0.002l-0.001,0.002h0.002l-0.001,0.002H2.85
	l-0.001,0.003h0.002l-0.001,0.002h0.003l-0.001,0.002h0.003l-0.001,0.003h0.002l-0.001,0.002h0.002l-0.001,0.002h0.002l-0.001,0.003
	h0.003l-0.001,0.002h0.002l-0.001,0.002h0.002l-0.001,0.003h0.002l-0.001,0.002h0.002l-0.001,0.002h0.003l-0.001,0.003h0.003
	L2.87,52.588h0.002L2.871,52.59h0.002l-0.001,0.003h0.002l-0.001,0.002h0.002l-0.001,0.003h0.003L2.877,52.6h0.002l-0.001,0.002
	H2.88L2.88,52.604h0.003l-0.001,0.003h0.002l-0.001,0.002h0.002l-0.001,0.002h0.003l-0.001,0.003h0.002l-0.001,0.002H2.89
	l-0.001,0.002h0.002L2.89,52.62h0.002l-0.001,0.002h0.002l-0.001,0.002h0.003l-0.001,0.002h0.002l-0.001,0.004h0.002l-0.001,0.002
	H2.9L2.9,52.635h0.002l-0.001,0.002h0.003l-0.001,0.002h0.002l-0.001,0.002h0.002l-0.001,0.002h0.003l-0.001,0.002H2.91L2.91,52.648
	h0.002L2.911,52.65h0.003l-0.001,0.002h0.002l-0.001,0.002h0.002l-0.001,0.002h0.002l-0.001,0.002h0.002l-0.001,0.006H2.92
	l-0.001,0.002h0.003l-0.001,0.002h0.002l-0.001,0.002h0.002l-0.001,0.002h0.002l-0.001,0.002h0.002l-0.001,0.002H2.93l-0.001,0.002
	h0.002l-0.001,0.002h0.001l-0.001,0.002h0.002l-0.001,0.002h0.003l-0.001,0.002h0.002L2.936,52.69h0.003l-0.001,0.002h0.002
	l-0.001,0.006h0.002L2.941,52.7h0.002l-0.001,0.002h0.002l-0.001,0.002h0.003l-0.001,0.002h0.002l-0.001,0.002H2.95L2.949,52.71
	h0.002l-0.001,0.002h0.002l-0.001,0.002h0.002l-0.001,0.002h0.003l-0.001,0.002h0.002l-0.001,0.002h0.002l-0.001,0.002h0.002
	L2.96,52.725h0.002l-0.001,0.006h0.003l-0.001,0.002h0.003l-0.001,0.002h0.002l-0.001,0.002h0.001l-0.001,0.002h0.002l-0.001,0.002
	h0.002L2.97,52.744h0.003l-0.001,0.002h0.002l-0.001,0.002h0.001L2.974,52.75h0.003l-0.001,0.002h0.002l-0.001,0.002H2.98
	l-0.001,0.002h0.003l-0.001,0.002h0.002l-0.001,0.006h0.002l-0.001,0.002h0.002l-0.001,0.002h0.002l-0.001,0.002h0.003l-0.001,0.002
	h0.003L2.99,52.776h0.002l-0.001,0.002h0.002L2.993,52.78h0.002l-0.001,0.004h0.002l-0.001,0.002h0.003l-0.001,0.002H3l-0.001,0.003
	H3L3,52.793h0.003l-0.001,0.002h0.002l-0.001,0.003h0.002L3.005,52.8h0.003l-0.001,0.002h0.002l-0.001,0.003H3.01L3.01,52.808h0.002
	L3.011,52.81h0.002l-0.001,0.003h0.003l-0.001,0.002h0.003l-0.001,0.002h0.002L3.017,52.82h0.002l-0.001,0.002H3.02l-0.001,0.002
	h0.002l0,0.003h0.003l-0.001,0.002h0.002l-0.001,0.003h0.002l-0.001,0.002h0.002l-0.001,0.002H3.03l-0.001,0.002h0.002L3.03,52.841
	h0.003l-0.001,0.002h0.002l-0.001,0.002h0.002l-0.001,0.003h0.002L3.037,52.85h0.002l-0.001,0.002h0.003L3.04,52.854h0.002
	l-0.001,0.002h0.003l-0.001,0.002h0.002l-0.001,0.002h0.002l-0.001,0.004h0.002l-0.001,0.002H3.05l-0.001,0.002h0.002l-0.001,0.002
	h0.002l-0.001,0.002h0.002l-0.001,0.002h0.002l-0.001,0.002h0.003L3.057,52.88H3.06l-0.001,0.002h0.002l-0.001,0.002h0.002
	l-0.001,0.002h0.002l-0.001,0.002h0.002l-0.001,0.002h0.003l-0.001,0.002h0.002l-0.002,0.006H3.07L3.069,52.9h0.002l-0.001,0.002
	h0.002l-0.001,0.002h0.002l-0.001,0.002h0.003l-0.001,0.002h0.002l-0.001,0.002h0.002l-0.001,0.002H3.08L3.08,52.915h0.002
	l-0.001,0.002h0.003L3.083,52.92h0.002l-0.001,0.002h0.002l-0.001,0.002h0.002l-0.001,0.002H3.09l-0.001,0.006H3.09L3.09,52.934
	h0.003l-0.001,0.002h0.002l-0.001,0.002h0.002L3.095,52.94h0.003l-0.001,0.002h0.002l-0.001,0.002H3.1L3.1,52.947h0.003
	l-0.001,0.002h0.002l-0.001,0.002h0.002l-0.001,0.002h0.002l-0.001,0.002h0.002l-0.001,0.002H3.11L3.11,52.959h0.003L3.11,52.966
	h0.002l-0.001,0.002h0.002L3.112,52.97h0.002l-0.001,0.002h0.003l-0.001,0.002h0.003l-0.001,0.002H3.12l-0.001,0.002h0.002
	l-0.001,0.002h0.002l-0.001,0.002h0.003l-0.001,0.002h0.003l-0.001,0.002h0.002l-0.001,0.002H3.13l-0.001,0.002h0.002l-0.001,0.002
	h0.002l-0.002,0.006h0.002l-0.001,0.002h0.003l-0.001,0.002h0.002l-0.001,0.002h0.002l-0.001,0.002h0.002L3.139,53.01h0.002
	L3.14,53.012h0.002l-0.001,0.002h0.003l-0.001,0.004h0.002L3.144,53.02h0.002l-0.001,0.002h0.002l-0.001,0.003H3.15l-0.001,0.002
	h0.003L3.151,53.03h0.002l-0.001,0.003h0.002l-0.001,0.002h0.002l-0.001,0.002h0.002L3.156,53.04h0.003l-0.001,0.002h0.003
	l-0.001,0.002h0.002l-0.001,0.003h0.003l-0.001,0.002h0.002l-0.001,0.002h0.002l-0.001,0.003h0.002l-0.001,0.002H3.17l-0.001,0.002
	h0.002l-0.001,0.003h0.002l-0.001,0.002h0.002l-0.001,0.003h0.002l-0.001,0.002h0.003L3.177,53.07h0.002l-0.001,0.002H3.18
	L3.18,53.075h0.002l-0.001,0.002h0.002l-0.001,0.002h0.002l-0.001,0.003h0.003l-0.001,0.002h0.002l-0.001,0.002H3.19l-0.001,0.002
	h0.003l-0.001,0.002h0.002l-0.001,0.002h9.368l8.936-24.075l0.05-1.18l1.055-1.799l0.153-0.414l3.96,10.67h-6.774v7.593h0.001v0.002
	h0.001v0.002h0.001v0.002h0.001v0.002h0.001V43.9h0.001v0.002h0.001v0.002h0.001v0.002h0.001v0.004h0.001v0.002h0.001v0.002h0.001
	v0.002h0.001v0.002h0.001v0.002h0.001v0.002h0.001v0.002h0.001v0.002h0.001v0.002h0.001v0.002h0.001v0.002h0.001v0.002h0.001v0.002
	h0.001v0.002h0.001v0.002h0.001v0.002h0.001v0.002h0.001v0.002h0.001v0.002h0.001v0.002h0.001v0.002h0.001v0.002h0.001v0.002h0.001
	v0.002h0.001v0.002h0.001v0.002h0.001v0.002h0.001v0.002h0.001v0.002h0.001v0.002h0.001v0.002H20v0.002h0.001v0.002h0.001v0.002
	h0.001v0.002h0.001v0.002h0.001v0.002h0.001v0.002h0.001v0.002h0.001v0.002h0.001v0.002h0.001V44h0.001v0.002h0.001v0.002h0.001
	v0.002h0.001v0.002h0.001v0.002h0.001v0.002h0.001v0.002h0.001v0.002h0.001v0.002h0.001v0.002h0.001v0.002h0.001v0.002h0.001v0.002
	h0.008v0.002h0.001v0.002h0.001v0.002h0.001v0.002h0.001v0.002h0.001v0.002h0.001v0.002h0.001v0.002h0.001v0.002h0.001v0.002h0.001
	v0.002h0.001v0.002h0.001v0.002h0.001v0.002h0.001v0.002h0.001v0.002h0.001v0.002h0.001v0.002h0.001v0.002h0.001v0.002h0.001v0.002
	h0.001v0.002h0.001v0.002h0.001v0.002h0.001v0.002h0.001v0.002h0.001v0.002h0.001v0.002h0.001v0.002h0.001v0.002h0.001v0.002h0.001
	v0.002h0.001v0.002h0.001v0.026h0.001v0.002h0.001v0.002h0.001v0.002h0.001v0.002h0.001v0.002h0.001v0.002h0.001v0.002h0.001v0.002
	h0.001v0.002h0.001v0.002h0.001v0.002h0.001v0.002h0.001v0.002h0.001v0.002h0.001v0.002h0.001v0.002h0.001v0.002h0.001v0.002h0.001
	v0.002h0.001v0.002h0.001v0.002h0.001v0.002h0.001v0.002h0.001v0.002h0.001v0.002h0.001v0.002h0.001v0.002h0.001v0.002h0.001v0.002
	h0.001v0.002h0.001v0.002h0.001v0.002h0.001v0.002h0.001v0.002h0.001v0.002h0.001V44.2h0.001v0.002h0.001v0.002h0.001v0.002h0.001
	v0.002h0.001v0.002h0.001v0.002h0.001v0.002h0.001v0.002h0.001v0.002h0.001v0.002h0.001v0.002h0.001v0.002h0.001v0.002h0.001v0.002
	h0.001v0.002h0.001v0.002h0.001v0.002h0.001v0.002h0.001v0.002h0.001v0.002h0.001v0.002h0.001v0.002h0.001v0.002h0.001v0.002h0.001
	v0.002h0.001v0.002h0.001v0.002h0.001v0.002h0.001v0.002h0.001v0.002h0.001v0.002h0.001v0.002h0.001v0.002h0.001v0.002h0.001v0.002
	h0.001v0.002h0.001v0.002h0.001v0.002h0.001v0.002h0.001v0.002h0.001v0.002h0.001v0.002H20.2v0.002h0.001v0.002h0.001v0.002h0.001
	v0.002h0.001V44.3h0.001v0.002h0.001v0.002h0.001v0.002h0.001v0.002h0.001v0.002h0.001v0.002h0.001v0.002h0.001v0.002h0.001v0.002
	h0.001v0.002h0.001v0.002h0.001v0.002h0.001v0.002h0.001v0.002h0.001v0.002h0.001v0.002h0.001v0.002h0.001v0.002h0.001v0.002h0.001
	v0.002h0.001v0.002h0.001v0.002h0.001v0.002h0.016v0.002h0.001v0.002h0.001v0.002h0.001v0.002h0.001v0.002h0.001v0.002h0.001v0.002
	h0.001v0.002h0.001v0.002h0.001v0.002h0.001v0.002h0.001v0.002h0.001v0.033h0.001v0.002h0.001v0.002h0.001v0.002h0.001v0.002h0.001
	v0.002h0.001v0.002h0.001v0.002h0.001v0.002h0.001v0.002h0.001v0.002h0.001v0.002h0.001v0.002h0.001v0.002h0.001v0.002h0.001v0.002
	h0.001v0.002h0.001v0.002h0.001v0.002h0.001v0.002h0.001v0.002h0.001v0.002h0.001v0.002h0.001v0.002h0.001v0.002h0.001v0.002h0.001
	v0.002h0.001v0.002h0.001v0.002h0.001v0.002h0.001v0.002h0.001v0.002h0.001v0.002h0.001v0.002h0.001v0.002h0.001v0.002h0.001v0.002
	h0.001v0.002h0.001v0.002h0.001v0.002h0.001v0.002h0.001v0.002h0.001v0.002h0.001v0.002h0.001v0.002h0.001v0.002h0.001v0.002h0.001
	v0.002h0.001v0.002h0.001v0.002h0.001v0.002h0.001v0.002h0.001v0.002h0.001v0.002h0.001v0.002h0.001v0.002h0.001v0.002h0.001v0.002
	h0.001v0.002h0.001v0.002h0.001v0.002h0.001v0.002h0.001v0.002h0.001v0.002h0.001v0.002h0.001v0.002h0.001v0.002h0.001v0.002h0.001
	v0.002h0.001v0.002h0.001v0.002h0.001v0.002h0.001v0.002h0.001v0.002h0.001v0.002h0.001v0.002h0.001v0.002h0.001v0.002h0.001v0.002
	h0.001v0.002h0.001v0.002h0.001v0.002h0.001v0.002h0.001v0.002h0.001v0.002h6.499l-0.243,0.282v7.486h0.001v0.002h0.001v0.002h0.001
	v0.002h0.001v0.002h0.001v0.002h0.001v0.002h0.001v0.002h0.001v0.002h0.001v0.002h0.001v0.002h0.001v0.002h0.001v0.002h0.001v0.002
	h0.001v0.002h0.001v0.002h0.001v0.002h0.001v0.002h0.001v0.002h0.001v0.002h0.001v0.002h0.001v0.002h0.001V52.4h0.001v0.002h0.001
	v0.002h0.001v0.002h0.001v0.002h0.001v0.002h0.001v0.002h0.001v0.002h0.001v0.002h0.001v0.002h0.001v0.002h0.001v0.002h0.001v0.002
	h0.001v0.002h0.001v0.002h0.001v0.002H26.7v0.002h0.001v0.002h0.001v0.002h0.001v0.002h0.001v0.002h0.001v0.002h0.001v0.002h0.001
	v0.002h0.001v0.002h0.001v0.002h0.001v0.002h0.001v0.002h0.001v0.002h0.001v0.002h0.001v0.002h0.001v0.002h0.001v0.002h0.001v0.002
	h0.001v0.002h0.001v0.002h0.001v0.002h0.001v0.002h0.001v0.002h0.001v0.002h0.001v0.002h0.001v0.002h0.001v0.002h0.001v0.002h0.001
	v0.002h0.001v0.002h0.001v0.002h0.001V52.5h0.001v0.002h0.001v0.002h0.001v0.002h0.001v0.002h0.001v0.002h0.001v0.002h0.001v0.002
	h0.001v0.002h0.001v0.002h0.001v0.045h0.001v0.002h0.02v0.002h0.001v0.002h0.001v0.002h0.001v0.002h0.001v0.002h0.001v0.002h0.001
	v0.002h0.001v0.002h0.001v0.002h0.001v0.002h0.001v0.002h0.001v0.002h0.001v0.002h0.001v0.002H26.8v0.002h0.001V52.6h0.001v0.002
	h0.001v0.002h0.001v0.002h0.001v0.002h0.001v0.002h0.001v0.002h0.001v0.002h0.001v0.002h0.001v0.002h0.001v0.002h0.001v0.002h0.001
	v0.002h0.001v0.002h0.001v0.002h0.001v0.002h0.001v0.002h0.001v0.002h0.001v0.002h0.001v0.002h0.001v0.002h0.001v0.002h0.001v0.002
	h0.001v0.002h0.001v0.002h0.001v0.002h0.001v0.002h0.001v0.002h0.001v0.002h0.001v0.002h0.001v0.002h0.001v0.002h0.006v0.002h0.001
	v0.002h0.001v0.002h0.001v0.002h0.001v0.002h0.001v0.002h0.001v0.002h0.001v0.002h0.001v0.002h0.001v0.002h0.001v0.002h0.001v0.002
	h0.001v0.002h0.001v0.002h0.001v0.002h0.001V52.7h0.001v0.002h0.001v0.002h0.001v0.002h0.001v0.002h0.001v0.002h0.001v0.002h0.001
	v0.002h0.001v0.002h0.001v0.002h0.001v0.002h0.001v0.002h0.001v0.002h0.001v0.002h0.001v0.002h0.001v0.002h0.001v0.002h0.001v0.002
	h0.001v0.002h0.001v0.002H26.9v0.002h0.001v0.002h0.001v0.002h0.001v0.002h0.001v0.002h0.001v0.002h0.001v0.002h0.001v0.002h0.001
	v0.002h0.001v0.002h0.001v0.002h0.001v0.002h0.001v0.002h0.001v0.002h0.001v0.002h0.001v0.002h0.001v0.002h0.001v0.002h0.001v0.002
	h0.001v0.002h0.001v0.002h0.001v0.002h0.001v0.002h0.001v0.002h0.001v0.002h0.001v0.002h0.001v0.002h0.001V52.8h0.001v0.002h0.001
	v0.002h0.001v0.002h0.001v0.002h0.001v0.002h0.001v0.002h0.001v0.002h0.001v0.033h0.001v0.002h0.001v0.002h0.001v0.002h0.001v0.002
	h0.001v0.002h0.001v0.002h0.001v0.002h0.001v0.002h0.001v0.002h0.001v0.002h0.001v0.002h0.001v0.002h0.001v0.002h0.001v0.002h0.001
	v0.002h0.001v0.002h0.001v0.002h0.001v0.002h0.001v0.002h0.001v0.002h0.001v0.002h0.001v0.002h0.011v0.002h0.001v0.002h0.001v0.002
	h0.001v0.002h0.001v0.002H27v0.002h0.001v0.002h0.001v0.002h0.001v0.002h0.001v0.002h0.001v0.002h0.001v0.002h0.001v0.002h0.001
	v0.002h0.001v0.002h0.001v0.002h0.001v0.002h0.001v0.002h0.001v0.002h0.001v0.002h0.001v0.002h0.001v0.002h0.001v0.002h0.001v0.002
	h0.001v0.002h0.001v0.002h0.001v0.002h0.001v0.002h0.001v0.002h0.001v0.002h0.001v0.002h0.001v0.002h0.001v0.002h0.001v0.002h0.001
	v0.002h0.001v0.002h0.001v0.002h0.001v0.002h0.001v0.002h0.001v0.002h0.001v0.002h0.001v0.002h0.001v0.002h0.001v0.002h0.001v0.002
	h0.001v0.002h0.001v0.002h0.006v0.002h0.001v0.002h0.001v0.002h0.001v0.002h0.001v0.002h0.001v0.002h0.001v0.002h0.001v0.002h0.001
	v0.002h0.001v0.002h0.001v0.002h0.001v0.002h0.001v0.002h0.001v0.002h0.001v0.002h0.001v0.002h0.001v0.002h0.001v0.002h0.001v0.002
	h0.001v0.026h0.001v0.002h0.001v0.002h0.001v0.002h0.001v0.002h0.001v0.002h0.001v0.002H27.1v0.002h0.001v0.002h0.001v0.002h0.001
	v0.002h0.001v0.002h0.001v0.002h0.001v0.002h0.001v0.002h6.027h9.56h21.087l7.529-8.498h0V44.596z"/>
<path fill="none" d="M37.176,24.374c-7.401-0.311-13.843,1.414-16.146,4.055l31.506,1.323
	C50.689,26.936,44.577,24.683,37.176,24.374z"/>
<linearGradient id="SVGID_2_" gradientUnits="userSpaceOnUse" x1="41.7753" y1="250.3419" x2="75.7176" y2="250.3419" gradientTransform="matrix(0.9426 0.0481 0.04 -0.7828 -27.9387 217.1469)">
	<stop  offset="0" style="stop-color:#6D6F70"/>
	<stop  offset="0.3159" style="stop-color:#BABCBE"/>
	<stop  offset="0.4624" style="stop-color:#808083"/>
	<stop  offset="0.7819" style="stop-color:#808083"/>
</linearGradient>
<path fill="url(#SVGID_2_)" d="M37.635,23.531c3.689,0.135,7.04,0.698,9.652,1.522c0.068-0.076,0.138-0.151,0.203-0.228
	c-2.671-0.846-6.082-1.421-9.833-1.56c-3.642-0.134-7.034,0.164-9.784,0.772c0.055,0.081,0.107,0.162,0.162,0.243
	C30.723,23.69,34.054,23.399,37.635,23.531z"/>
<path fill="#5BA7DC" d="M39.977,43.889c0,0-2.761-7.592-2.743-7.434c0.006,0.055-0.013-0.105-0.018-0.157h-1.427L22.587,3.038
	l-3.906,9.692L2.734,52.376h9.368l10.291-27.723l4.323,11.646h-6.774v7.591h9.592l3.15,8.486h9.56l-3.406-8.486H39.977z"/>
<polygon fill="#FBB03B" points="37.791,43.878 59.441,18.685 59.441,12.106 28.524,12.106 31.094,19.697 48.306,19.697 
	26.656,44.89 26.656,52.376 63.33,52.376 70.859,43.878 "/>
<g opacity="0.6">
	<path fill="#231F20" d="M58.753,18.135L36.675,43.867c0,0,1.097,0,1.108,0c0,0,1.221-1.352,1.197-1.352
		c-0.011,0,0.477,1.375,0.455,1.363l0.543,0.011c-0.115-0.316-0.45-1.31-0.633-1.812l20.117-23.41v-6.58h-0.709L58.753,18.135
		L58.753,18.135z"/>
	<polygon fill="#231F20" points="48.29,19.679 48.748,19.147 30.935,19.147 31.115,19.679 	"/>
	<polygon fill="#231F20" points="34.549,34.356 34.89,33.959 22.609,3.021 22.358,3.643 	"/>
	<polygon fill="#231F20" points="69.7,43.86 62.643,51.826 41.556,51.826 31.995,51.826 26.678,51.826 26.678,52.358 32.705,52.358 
		42.265,52.358 63.352,52.358 70.881,43.86 	"/>
	<polygon fill="#231F20" points="21.946,23.465 11.414,51.826 2.97,51.826 2.756,52.358 12.124,52.358 22.399,24.686 	"/>
	<polygon fill="#231F20" points="27.966,43.339 19.964,43.339 19.964,43.871 27.509,43.871 	"/>
</g>
<g>
	
		<linearGradient id="SVGID_3_" gradientUnits="userSpaceOnUse" x1="-487.595" y1="331.4463" x2="-487.5884" y2="331.4463" gradientTransform="matrix(1 -0.0081 -0.0081 -1 543.4727 356.2664)">
		<stop  offset="0" style="stop-color:#1B75BA"/>
		<stop  offset="0.5893" style="stop-color:#26A7DF"/>
		<stop  offset="0.8229" style="stop-color:#78D0F5"/>
		<stop  offset="1" style="stop-color:#1B75BA"/>
	</linearGradient>
	<path fill="url(#SVGID_3_)" d="M53.19,28.637l0.004,0.266C53.204,28.734,53.19,28.637,53.19,28.637z"/>
	
		<linearGradient id="SVGID_4_" gradientUnits="userSpaceOnUse" x1="-519.7729" y1="327.0812" x2="-487.5395" y2="327.0812" gradientTransform="matrix(1 -0.0081 -0.0081 -1 543.4727 356.2664)">
		<stop  offset="0" style="stop-color:#1B75BA"/>
		<stop  offset="0.5893" style="stop-color:#26A7DF"/>
		<stop  offset="0.8229" style="stop-color:#78D0F5"/>
		<stop  offset="1" style="stop-color:#1B75BA"/>
	</linearGradient>
	<path fill="url(#SVGID_4_)" d="M53.287,33.478l-0.002-0.099c0-0.016-0.001-0.032-0.001-0.048l-0.091-4.43
		c-0.073,1.095-1.258,5.213-14.958,5.216c-15.8,0.004-17.009-5.968-17.009-5.968s-0.277,1.939-0.165,4.308
		c-0.004,0.116,0.002,0.232,0.019,0.347c0.003,0.049,0.006,0.098,0.009,0.148c-0.004-0.055-0.006-0.102-0.009-0.143
		c0.138,0.912,0.924,1.787,2.205,2.565c0.149,0.093,0.299,0.179,0.45,0.259c2.803,1.525,7.55,2.631,12.993,2.832
		c4.435,0.164,8.507-0.304,11.502-1.192c0.121-0.027,0.242-0.054,0.362-0.082c0.035-0.021,0.07-0.043,0.109-0.06
		c0.024-0.01,0.048-0.018,0.072-0.028c2.69-0.882,4.389-2.125,4.504-3.551c0.001-0.017,0.001-0.033,0.001-0.05
		C53.283,33.495,53.286,33.484,53.287,33.478z"/>
</g>
<linearGradient id="SVGID_5_" gradientUnits="userSpaceOnUse" x1="41.7859" y1="242.0541" x2="75.7287" y2="242.0541" gradientTransform="matrix(0.9426 0.0481 0.04 -0.7828 -27.9387 217.1469)">
	<stop  offset="0" style="stop-color:#1B75BA"/>
	<stop  offset="0.3159" style="stop-color:#26A7DF"/>
	<stop  offset="0.4624" style="stop-color:#28AAE1"/>
	<stop  offset="0.7819" style="stop-color:#1B75BA"/>
</linearGradient>
<path fill="url(#SVGID_5_)" d="M52.707,27.795c-0.004-0.006-0.009-0.011-0.013-0.016c-0.018,0.016-0.028,0.035-0.048,0.05
	c-0.081,0.082-0.157,0.167-0.232,0.254c0.26,0.41,0.394,0.831,0.36,1.26c-0.231,2.89-7.399,4.984-15.978,4.668
	c-8.579-0.316-15.37-2.923-15.138-5.813c0.043-0.536,0.325-1.045,0.811-1.517c0.171-0.166,0.297-0.249,0.519-0.405
	c-0.047-0.103-0.082-0.21-0.115-0.318c-0.683,0.442-1.112,0.849-1.397,1.366c-0.153,0.277-0.244,0.563-0.267,0.858
	c-0.243,3.036,6.74,5.77,15.567,6.095s16.206-1.881,16.449-4.917C53.267,28.825,53.084,28.3,52.707,27.795z"/>
</svg>
