<?xml version="1.0" encoding="utf-8"?>
<!-- Generator: Adobe Illustrator 17.0.0, SVG Export Plug-In . SVG Version: 6.00 Build 0)  -->
<!DOCTYPE svg PUBLIC "-//W3C//DTD SVG 1.1//EN" "http://www.w3.org/Graphics/SVG/1.1/DTD/svg11.dtd">
<svg version="1.1" id="Layer_1" xmlns="http://www.w3.org/2000/svg" xmlns:xlink="http://www.w3.org/1999/xlink" x="0px" y="0px"
	 width="50px" height="50px" viewBox="0 0 50 50" enable-background="new 0 0 50 50" xml:space="preserve">
<path fill="#FFFFFF" d="M25,0C11.193,0,0,11.193,0,25s11.193,25,25,25c13.807,0,25-11.193,25-25S38.807,0,25,0z M36.9,17.533
	c-2.442,6.326-2.064,12.892-3.379,19.265c-0.295,1.43-0.928,2.831-1.643,4.112c-0.291,0.522-1.304,2.404-1.829,2.276
	c-0.65-0.158-1.479-2.27-1.619-2.907c-0.315-1.431-0.274-2.944-0.337-4.425c-0.088-2.072,0.16-4.219-0.33-6.186
	c-0.245-0.986-1.834-2.316-2.762-2.276c-1.085,0.047-2.741,1.242-3.028,2.256c-0.549,1.941-0.305,4.106-0.39,6.178
	c-0.058,1.406,0.058,2.851-0.247,4.201c-0.162,0.718-0.995,3.039-1.634,3.129c-0.653,0.093-1.807-1.933-2.097-2.568
	c-0.796-1.745-1.443-3.609-1.796-5.492c-0.41-2.191-0.097-4.396-0.295-6.627c0.196-0.048-1.065-4.711-1.606-6.994
	c-0.528-2.226-1.253-4.483-1.28-6.734c-0.044-3.659,3.219-6.208,6.717-5.223c3.712,1.046,7.188,1.128,10.943,0.02
	C34.714,8.234,38.785,12.651,36.9,17.533z"/>
</svg>
