<?xml version="1.0" encoding="utf-8"?>
<!-- Generator: Adobe Illustrator 17.0.0, SVG Export Plug-In . SVG Version: 6.00 Build 0)  -->
<!DOCTYPE svg PUBLIC "-//W3C//DTD SVG 1.1//EN" "http://www.w3.org/Graphics/SVG/1.1/DTD/svg11.dtd">
<svg version="1.1" id="Layer_1" xmlns="http://www.w3.org/2000/svg" xmlns:xlink="http://www.w3.org/1999/xlink" x="0px" y="0px"
	 width="50px" height="50px" viewBox="0 0 50 50" enable-background="new 0 0 50 50" xml:space="preserve">
<g>
	<path fill="#FFFFFC" d="M16.63,16.138c0.34,1.792,0.684,3.584,1.016,5.377c0.039,0.213,0.126,0.326,0.339,0.37
		c0.415,0.087,0.823,0.215,1.241,0.285c1.88,0.315,3.779,0.345,6.098,0.382c0.826-0.036,2.075-0.04,3.313-0.159
		c1.1-0.105,2.187-0.341,3.282-0.51c0.285-0.044,0.377-0.207,0.426-0.472c0.358-1.936,0.725-3.871,1.104-5.804
		c0.053-0.269-0.007-0.441-0.211-0.618c-1.096-0.951-2.397-1.482-3.784-1.797c-2.884-0.654-5.783-0.66-8.677-0.06
		c-1.393,0.289-2.701,0.794-3.842,1.681c-0.343,0.267-0.557,0.539-0.372,0.989C16.606,15.907,16.609,16.026,16.63,16.138z
		 M21.332,16.412c0.229,0,0.453,0,0.676,0c0.488,0,0.976-0.011,1.464,0.005c0.237,0.008,0.302-0.076,0.296-0.305
		c-0.014-0.602-0.005-1.204-0.004-1.806c0-0.111,0.009-0.223,0.014-0.345c0.814,0,1.599,0,2.428,0c0,0.517-0.006,1.023,0.002,1.529
		c0.005,0.296-0.076,0.688,0.079,0.86c0.135,0.15,0.545,0.057,0.834,0.062c0.467,0.007,0.934,0.004,1.401,0.007
		c0.03,0,0.06,0.012,0.111,0.024c0,0.79,0,1.581,0,2.408c-0.807,0-1.6,0-2.432,0c0,0.828,0,1.622,0,2.427c-0.824,0-1.61,0-2.434,0
		c0-0.806,0-1.6,0-2.428c-0.831,0-1.625,0-2.436,0C21.332,18.031,21.332,17.247,21.332,16.412z"/>
	<path fill="#FFFFFC" d="M35.872,26.033c-1.568,0.206-3.141,0.288-4.722,0.177c-1.811-0.127-3.579-0.447-5.259-1.168
		c-0.137-0.059-0.3-0.07-0.452-0.076c-1.722-0.067-3.444-0.121-5.165-0.202c-0.257-0.012-0.41,0.027-0.567,0.242
		c-0.711,0.972-1.622,1.717-2.695,2.26c-0.94,0.477-1.932,0.791-2.987,0.896c-0.015,0.028-0.031,0.056-0.046,0.084
		c0.155,0.159,0.284,0.369,0.471,0.467c0.518,0.273,1.052,0.523,1.599,0.731c0.211,0.08,0.3,0.162,0.317,0.375
		c0.127,1.574,0.572,3.061,1.347,4.43c1.347,2.378,3.149,4.271,5.797,5.204c0.594,0.209,1.19,0.443,1.846,0.31
		c1.483-0.302,2.791-0.964,3.985-1.883c1.696-1.305,2.974-2.907,3.64-4.965c0.471-1.456,0.651-2.954,0.664-4.476
		c0.003-0.304,0.04-0.51,0.39-0.572c0.165-0.029,0.32-0.143,0.468-0.238c0.629-0.402,1.107-0.949,1.538-1.598
		C35.953,26.033,35.912,26.028,35.872,26.033z M20.653,32.292c-0.995-0.04-1.79-0.872-1.742-1.826
		c0.05-0.989,0.851-1.763,1.801-1.74c0.981,0.024,1.793,0.859,1.763,1.814C22.444,31.527,21.609,32.33,20.653,32.292z M29.24,32.291
		c-0.997-0.046-1.784-0.868-1.743-1.821c0.043-0.991,0.87-1.781,1.824-1.743c0.988,0.039,1.78,0.869,1.74,1.825
		C31.02,31.546,30.195,32.334,29.24,32.291z"/>
	<path fill="#FFFFFC" d="M25,0C11.193,0,0,11.193,0,25s11.193,25,25,25c13.807,0,25-11.193,25-25S38.807,0,25,0z M39.512,32.186
		c-0.094,2.052-0.401,4.065-0.975,6.037c-0.04,0.139-0.162,0.296-0.289,0.36c-0.471,0.237-0.946,0.48-1.445,0.645
		c-1.79,0.592-3.614,0.552-5.449,0.235c-0.161-0.028-0.378,0.014-0.507,0.108c-1.113,0.815-2.318,1.448-3.603,1.947
		c-1.48,0.575-2.942,0.6-4.429,0.024c-1.246-0.482-2.421-1.085-3.521-1.841c-0.124-0.085-0.303-0.138-0.452-0.129
		c-2.363,0.143-4.629-0.253-6.805-1.186c-0.184-0.079-0.268-0.189-0.322-0.372c-0.571-1.957-0.968-3.946-1.145-5.979
		c-0.21-2.413-0.141-4.812,0.342-7.19c0.549-2.703,1.558-5.199,3.346-7.34c0.067-0.08,0.098-0.228,0.081-0.334
		c-0.099-0.604-0.199-1.208-0.333-1.805c-0.115-0.511,0.021-0.939,0.326-1.338c0.479-0.626,1.06-1.139,1.716-1.57
		c1.979-1.298,4.202-1.831,6.519-2.066c0.494-0.05,0.989-0.088,1.484-0.132c0.623,0,1.246,0,1.87,0
		c0.453,0.042,0.906,0.086,1.36,0.125c1.874,0.161,3.691,0.554,5.398,1.368c1.136,0.542,2.156,1.243,2.942,2.249
		c0.318,0.406,0.456,0.842,0.344,1.363c-0.152,0.71-0.279,1.425-0.397,2.141c-0.022,0.133,0.01,0.313,0.089,0.417
		c1.501,1.996,2.487,4.231,3.099,6.638C39.392,27.064,39.63,29.606,39.512,32.186z"/>
</g>
</svg>
