<?xml version="1.0" encoding="utf-8"?>
<!-- Generator: Adobe Illustrator 17.0.0, SVG Export Plug-In . SVG Version: 6.00 Build 0)  -->
<!DOCTYPE svg PUBLIC "-//W3C//DTD SVG 1.1//EN" "http://www.w3.org/Graphics/SVG/1.1/DTD/svg11.dtd">
<svg version="1.1" id="Layer_1" xmlns="http://www.w3.org/2000/svg" xmlns:xlink="http://www.w3.org/1999/xlink" x="0px" y="0px"
	 width="50px" height="50px" viewBox="0 0 50 50" enable-background="new 0 0 50 50" xml:space="preserve">
<g>
	<path fill="#FFFEFF" d="M25,0C11.193,0,0,11.193,0,25s11.193,25,25,25c13.807,0,25-11.193,25-25S38.807,0,25,0z M38.619,39.535
		c-0.083,0-0.147,0-0.212,0c-7.806,0-15.612,0.004-23.418-0.003c-1.986-0.002-3.6-1.613-3.602-3.595
		c-0.007-7.295-0.006-14.59,0-21.886c0.001-1.611,1.109-3.03,2.659-3.457c0.171-0.047,0.345-0.086,0.517-0.129
		c6.813,0,13.627,0,20.44,0c0,7.868,0,15.736,0,23.62c-0.161,0-0.283,0-0.405,0c-6.472,0-12.944-0.001-19.416,0.004
		c-0.243,0-0.496,0.022-0.726,0.093c-0.839,0.258-1.369,1.113-1.243,1.962c0.138,0.93,0.892,1.574,1.859,1.574
		c7.163,0.001,14.325,0.001,21.488,0c0.081,0,0.163-0.01,0.273-0.018c0-7.877,0-15.733,0-23.586c0.614,0,1.196,0,1.786,0
		C38.619,22.591,38.619,31.053,38.619,39.535z"/>
	<path fill="#FFFEFF" d="M33.166,12.304c-6.06,0-12.1,0-18.133,0c0,6.661,0,13.3,0,19.951c6.048,0,12.081,0,18.133,0
		C33.166,25.586,33.166,18.941,33.166,12.304z M22.262,23.163c-1.187,0-2.381,0-3.598,0c0-0.603,0-1.185,0-1.782
		c1.2,0,2.388,0,3.598,0C22.262,21.964,22.262,22.553,22.262,23.163z M25.896,19.53c-2.4,0-4.805,0-7.232,0c0-0.604,0-1.187,0-1.784
		c2.412,0,4.811,0,7.232,0C25.896,18.331,25.896,18.921,25.896,19.53z M29.539,15.901c-3.623,0-7.233,0-10.865,0
		c0-0.586,0-1.175,0-1.784c3.611,0,7.228,0,10.865,0C29.539,14.722,29.539,15.304,29.539,15.901z"/>
</g>
</svg>
