<?xml version="1.0" encoding="utf-8"?>
<!-- Generator: Adobe Illustrator 17.1.0, SVG Export Plug-In . SVG Version: 6.00 Build 0)  -->
<!DOCTYPE svg PUBLIC "-//W3C//DTD SVG 1.1//EN" "http://www.w3.org/Graphics/SVG/1.1/DTD/svg11.dtd">
<svg version="1.1" id="Layer_1" xmlns="http://www.w3.org/2000/svg" xmlns:xlink="http://www.w3.org/1999/xlink" x="0px" y="0px"
	 viewBox="0 0 45 90" enable-background="new 0 0 45 90" xml:space="preserve">
<g>
	<path fill="#939598" d="M25.492,10.53c0,0-5.496,0-7.378,0c-3.375,0-6.553,2.369-6.553,5.33c0,3.026,2.3,5.379,5.734,5.379
		c0.239,0,0.472-0.054,0.699-0.071c-0.225,0.425-0.381,0.882-0.381,1.381c0,0.841,0.451,1.513,1.022,2.069
		c-0.429,0-0.849,0.006-1.305,0.006c-4.181,0.001-7.399,2.662-7.399,5.423c0,2.719,3.529,4.423,7.709,4.423
		c4.767,0,7.401-2.707,7.401-5.427c0-2.18-0.644-3.487-2.632-4.897c-0.681-0.48-1.982-1.652-1.982-2.341
		c0-0.807,0.23-1.204,1.446-2.154C23.118,18.679,24,17.52,24,15.928c0-1.892-0.814-4.201-2.397-4.201h2.693L25.492,10.53z
		 M23.016,28.572c0.057,0.254,0.092,0.513,0.092,0.777c0,2.198-1.418,3.915-5.482,3.915c-2.891,0-4.977-1.829-4.977-4.026
		c0-2.153,2.589-3.947,5.481-3.915c0.673,0.007,1.302,0.116,1.872,0.298C21.571,26.713,22.696,27.33,23.016,28.572z M18.386,20.374
		c-1.94-0.056-3.785-2.17-4.119-4.716c-0.334-2.549,0.967-4.499,2.906-4.442c1.939,0.06,3.785,2.104,4.119,4.651
		C21.627,18.415,20.326,20.432,18.386,20.374z"/>
	<polygon fill="#939598" points="31.477,20.097 31.477,16.506 29.083,16.506 29.083,20.097 25.492,20.097 25.492,22.49 
		29.083,22.49 29.083,26.081 31.477,26.081 31.477,22.49 35.068,22.49 35.068,20.097 	"/>
</g>
<g>
	<path fill="#E02F2F" d="M25.492,55.53c0,0-5.496,0-7.378,0c-3.375,0-6.553,2.369-6.553,5.33c0,3.026,2.3,5.379,5.734,5.379
		c0.239,0,0.472-0.054,0.699-0.071c-0.225,0.425-0.381,0.882-0.381,1.381c0,0.841,0.451,1.513,1.022,2.069
		c-0.429,0-0.849,0.006-1.305,0.006c-4.181,0.001-7.399,2.662-7.399,5.423c0,2.719,3.529,4.423,7.709,4.423
		c4.767,0,7.401-2.707,7.401-5.427c0-2.18-0.644-3.487-2.632-4.897c-0.681-0.48-1.982-1.652-1.982-2.341
		c0-0.807,0.23-1.204,1.446-2.154C23.118,63.679,24,62.52,24,60.928c0-1.892-0.814-4.201-2.397-4.201h2.693L25.492,55.53z
		 M23.016,73.572c0.057,0.254,0.092,0.513,0.092,0.777c0,2.198-1.418,3.915-5.482,3.915c-2.891,0-4.977-1.829-4.977-4.026
		c0-2.153,2.589-3.947,5.481-3.915c0.673,0.007,1.302,0.116,1.872,0.298C21.571,71.713,22.696,72.33,23.016,73.572z M18.386,65.374
		c-1.94-0.056-3.785-2.17-4.119-4.716c-0.334-2.549,0.967-4.499,2.906-4.442c1.939,0.06,3.785,2.104,4.119,4.651
		C21.627,63.415,20.326,65.432,18.386,65.374z"/>
	<polygon fill="#E02F2F" points="31.477,65.097 31.477,61.506 29.083,61.506 29.083,65.097 25.492,65.097 25.492,67.49 
		29.083,67.49 29.083,71.081 31.477,71.081 31.477,67.49 35.068,67.49 35.068,65.097 	"/>
</g>
</svg>
