<?xml version="1.0" encoding="utf-8"?>
<!-- Generator: Adobe Illustrator 17.1.0, SVG Export Plug-In . SVG Version: 6.00 Build 0)  -->
<!DOCTYPE svg PUBLIC "-//W3C//DTD SVG 1.1//EN" "http://www.w3.org/Graphics/SVG/1.1/DTD/svg11.dtd">
<svg version="1.1" id="Layer_1" xmlns="http://www.w3.org/2000/svg" xmlns:xlink="http://www.w3.org/1999/xlink" x="0px" y="0px"
	 viewBox="0 0 45 90" enable-background="new 0 0 45 90" xml:space="preserve">
<path fill="#939598" d="M34.835,14.849c-0.907,0.403-1.883,0.675-2.907,0.797c1.046-0.626,1.847-1.618,2.225-2.8
	c-0.978,0.58-2.061,1.002-3.214,1.229c-0.923-0.984-2.238-1.598-3.694-1.598c-2.795,0-5.061,2.266-5.061,5.061
	c0,0.396,0.045,0.782,0.131,1.153c-4.207-0.211-7.936-2.226-10.433-5.288c-0.436,0.747-0.685,1.617-0.685,2.545
	c0,1.756,0.893,3.305,2.252,4.213c-0.829-0.027-1.61-0.254-2.293-0.633c-0.001,0.021-0.001,0.043-0.001,0.064
	c0,2.452,1.745,4.497,4.06,4.963c-0.425,0.115-0.872,0.177-1.334,0.177c-0.327,0-0.644-0.032-0.952-0.091
	c0.645,2.011,2.513,3.474,4.728,3.515c-1.732,1.358-3.914,2.167-6.286,2.167c-0.408,0-0.811-0.024-1.207-0.071
	c2.24,1.437,4.901,2.274,7.759,2.274c9.31,0,14.4-7.712,14.4-14.4c0-0.219-0.005-0.438-0.014-0.656
	C33.299,16.756,34.157,15.864,34.835,14.849z"/>
<path fill="#00BDF2" d="M34.835,59.849c-0.907,0.403-1.883,0.675-2.907,0.797c1.046-0.626,1.847-1.618,2.225-2.8
	c-0.978,0.58-2.061,1.002-3.214,1.229c-0.923-0.984-2.238-1.598-3.694-1.598c-2.795,0-5.061,2.266-5.061,5.061
	c0,0.396,0.045,0.782,0.131,1.153c-4.207-0.211-7.936-2.226-10.433-5.288c-0.436,0.747-0.685,1.617-0.685,2.545
	c0,1.756,0.893,3.305,2.252,4.213c-0.829-0.027-1.61-0.254-2.293-0.633c-0.001,0.021-0.001,0.043-0.001,0.064
	c0,2.452,1.745,4.497,4.06,4.963c-0.425,0.115-0.872,0.177-1.334,0.177c-0.327,0-0.644-0.032-0.952-0.091
	c0.645,2.011,2.513,3.474,4.728,3.515c-1.732,1.358-3.914,2.167-6.286,2.167c-0.408,0-0.811-0.024-1.207-0.071
	c2.24,1.437,4.901,2.274,7.759,2.274c9.31,0,14.4-7.712,14.4-14.4c0-0.219-0.005-0.438-0.014-0.656
	C33.299,61.756,34.157,60.864,34.835,59.849z"/>
</svg>
