<?xml version="1.0" encoding="utf-8"?>
<!-- Generator: Adobe Illustrator 17.1.0, SVG Export Plug-In . SVG Version: 6.00 Build 0)  -->
<!DOCTYPE svg PUBLIC "-//W3C//DTD SVG 1.1//EN" "http://www.w3.org/Graphics/SVG/1.1/DTD/svg11.dtd">
<svg version="1.1" id="Layer_1" xmlns="http://www.w3.org/2000/svg" xmlns:xlink="http://www.w3.org/1999/xlink" x="0px" y="0px"
	 viewBox="0 0 45 90" enable-background="new 0 0 45 90" xml:space="preserve">
<path fill="#939598" d="M28.299,18H23v-2.199C23,14.739,24.847,14,25.322,14C25.795,14,29,14,29,14V9.825l-4.273-0.016
	c-4.451,0-5.727,3.48-5.727,5.708V18h-3v5h3c0,6,0,13,0,13h4c0,0,0-7,0-13h4.827L28.299,18z"/>
<path fill="#3A5898" d="M28.299,63H23v-2.199C23,59.739,24.847,59,25.322,59C25.795,59,29,59,29,59v-4.175l-4.273-0.016
	c-4.451,0-5.727,3.48-5.727,5.708V63h-3v5h3c0,6,0,13,0,13h4c0,0,0-7,0-13h4.827L28.299,63z"/>
</svg>
